# xmcd
#
# Track frame offsets:
#	150
#	21915
#	39160
#	51997
#	73027
#	85665
#	99997
#	120125
#	136572
#	153947
#	173905
#	188630
#
# Disc length: 2752 seconds
#
# Revision: 2
# Processed by: cddbd v1.5.2PL0 Copyright (c) Steve Scherf et al.
# Submitted via: audiograbber 1.83.01
#
DISCID=860abe0c
DTITLE=Sampler - Hats off to Garth Brooks
DYEAR=1999
DGENRE=Country
TTITLE0=Teddy "Zig Zag" (From Guns 'N' Roses) - Friends In Low Places
TTITLE1=Al and Matt Jardine (From Beach Boys) - Papa Loved Mama
TTITLE2=Herb Pederson (From Desert Rose Band) - She's Every Woman
TTITLE3=Robin McAuley (From MSG) - That Summer
TTITLE4=Jason Scheff (From Chicago) - The Fever
TTITLE5=Bobby Kimball (From Toto) - The Dance
TTITLE6=Dave Amato (From Reo Speedwagon) - Shameless
TTITLE7=Half Penny Marvel - To Make You Feel My Love
TTITLE8=Dennie Laine (From Wings) - The Thunder Rolls
TTITLE9=Tony Guiliano and Maryanna Elliot - The River
TTITLE10=Gary Griffin - Mr. Blue
TTITLE11=Spencer Davis and Carmine Appice - Standing Outside The Fire
EXTD=YEAR: 1999
EXTT0=
EXTT1=
EXTT2=
EXTT3=
EXTT4=
EXTT5=
EXTT6=
EXTT7=
EXTT8=
EXTT9=
EXTT10=
EXTT11=
PLAYORDER=
